<?xml version="1.0" encoding="utf-8"?>
<!-- Generator: Adobe Illustrator 23.0.1, SVG Export Plug-In . SVG Version: 6.00 Build 0)  -->
<svg version="1.1" id="Layer_1" xmlns="http://www.w3.org/2000/svg" xmlns:xlink="http://www.w3.org/1999/xlink" x="0px" y="0px"
	 viewBox="0 0 640 170" style="enable-background:new 0 0 640 170;" xml:space="preserve">
<style type="text/css">
	.st0{fill-rule:evenodd;clip-rule:evenodd;fill:#FFFFFF;fill-opacity:0.5;}
	.st1{fill-rule:evenodd;clip-rule:evenodd;fill:#6E6E6E;}
	.st2{fill:none;stroke:#FFFFFF;stroke-width:3;}
	.st3{fill-rule:evenodd;clip-rule:evenodd;fill:#FFFFFF;}
	.st4{enable-background:new    ;}
	.st5{fill:#FFFFFF;}
	.st6{fill:none;stroke:#FFFFFF;stroke-width:6;}
	.st7{fill-rule:evenodd;clip-rule:evenodd;fill:#FFD800;}
	.st8{fill-rule:evenodd;clip-rule:evenodd;fill:#1274C4;}
	.st9{fill:#4A4A4A;}
</style>
<title>controls_background_wide</title>
<desc>Created with Sketch.</desc>
<rect id="background-size-0-alpha" class="st0" width="640" height="170"/>
<path id="Combined-Shape" class="st1" d="M7,44c0-4.4,3.6-8,8-8h100c4.4,0,8,3.6,8,8v112c0,4.4-3.6,8-8,8H15c-4.4,0-8-3.6-8-8V44z
	 M10,45v74c0,3.3,2.7,6,6,6h98c3.3,0,6-2.7,6-6V45c0-3.3-2.7-6-6-6H16C12.7,39,10,41.7,10,45z"/>
<path id="Rectangle-6" class="st2" d="M19,134.9c0-2.2,1.8-4.2,4-4.5c0,0,1.9-0.4,8.3-0.4s8.8,0.5,8.8,0.5c2.2,0.3,4,2.3,4,4.5v16.1
	c0,2.2-1.8,4.2-4,4.5c0,0-2.3,0.5-8.5,0.5s-8.5-0.5-8.5-0.5c-2.2-0.3-4-2.3-4-4.5V134.9z"/>
<path id="Rectangle-4" class="st3" d="M34,137h3c1.1,0,2,0.9,2,2v3c0,1.1-0.9,2-2,2h-3c-1.1,0-2-0.9-2-2v-3
	C32,137.9,32.9,137,34,137z"/>
<path id="Rectangle-4-Copy" class="st3" d="M26,137.5h2c1.1,0,2,0.9,2,2v2c0,1.1-0.9,2-2,2h-2c-1.1,0-2-0.9-2-2v-2
	C24,138.4,24.9,137.5,26,137.5z"/>
<g class="st4">
	<path class="st5" d="M68.7,150h-3v-5.2H61v5.2h-3v-12.8h3v5.4h4.7v-5.4h3V150z"/>
	<path class="st5" d="M78.7,144.5h-5v3.2h5.9v2.3h-8.9v-12.8h8.9v2.3h-5.9v2.8h5V144.5z"/>
	<path class="st5" d="M87.7,147.5h-4.1l-0.7,2.5h-3l4.1-12.8h3.2l4.1,12.8h-3L87.7,147.5z M84.2,145.2H87l-1.4-4.9h0L84.2,145.2z"/>
	<path class="st5" d="M92.3,150v-12.8h4.2c1.8,0,3.2,0.5,4.3,1.5s1.6,2.4,1.6,4.1v1.6c0,1.7-0.5,3.1-1.6,4.1s-2.5,1.5-4.3,1.5H92.3z
		 M95.3,139.5v8.2h1.1c1.1,0,1.9-0.3,2.4-0.9s0.7-1.4,0.7-2.4v-1.6c0-1-0.2-1.9-0.7-2.4s-1.3-0.9-2.4-0.9H95.3z"/>
</g>
<path class="st1" d="M415,44c0-4.4,3.6-8,8-8h100c4.4,0,8,3.6,8,8v112c0,4.4-3.6,8-8,8H423c-4.4,0-8-3.6-8-8V44z M418,45v74
	c0,3.3,2.7,6,6,6h98c3.3,0,6-2.7,6-6V45c0-3.3-2.7-6-6-6h-98C420.7,39,418,41.7,418,45z"/>
<path id="Path-3" class="st6" d="M427,134v14.5c0,4.6,3.5,4.8,3.5,4.8h24.8c0,0,2.6,0,2.6-4.8s0-14.5,0-14.5"/>
<g class="st4">
	<path class="st5" d="M477.7,147.5h-4.1L473,150h-3l4.1-12.8h3.2l4.1,12.8h-3L477.7,147.5z M474.3,145.2h2.8l-1.4-4.9h0L474.3,145.2
		z"/>
	<path class="st5" d="M485.4,145.1v4.9h-3v-12.8h5.2c1.5,0,2.6,0.3,3.4,1c0.8,0.6,1.1,1.6,1.1,2.8c0,0.7-0.2,1.3-0.6,1.8
		c-0.4,0.5-1,0.8-1.7,1.1l0,0c0.8,0.2,1.3,0.6,1.7,1.1c0.3,0.5,0.5,1.2,0.5,2v0.8c0,0.3,0,0.7,0.1,1.1c0.1,0.4,0.3,0.7,0.5,0.9v0.3
		h-3c-0.2-0.2-0.4-0.5-0.5-1c-0.1-0.5-0.1-0.9-0.1-1.3V147c0-0.6-0.1-1.1-0.4-1.4c-0.3-0.3-0.7-0.5-1.4-0.5H485.4z M485.4,142.8h2
		c0.6,0,1.1-0.1,1.4-0.4c0.3-0.3,0.5-0.7,0.5-1.2c0-0.5-0.1-1-0.4-1.3c-0.3-0.3-0.7-0.5-1.3-0.5h-2V142.8z"/>
	<path class="st5" d="M498,137.2l2.9,9h0l2.9-9h3.9V150h-3v-3.2l0.3-5.9l0,0l-3.1,9.1h-2l-3.1-9l0,0l0.3,5.9v3.2h-3v-12.8H498z"/>
</g>
<polygon id="Rectangle-2-Copy-4" class="st7" points="38.2,43 48.4,55.4 27.9,55.4 "/>
<polygon class="st7" points="92.2,119.4 82,107 102.4,107 "/>
<polygon class="st7" points="446.2,43 456.4,55.4 435.9,55.4 "/>
<polygon class="st7" points="500.2,119.4 490,107 510.4,107 "/>
<polygon id="Rectangle-2" class="st8" points="269.2,2 284.3,20.4 254,20.4 "/>
<polygon id="Rectangle-2-Copy-3" class="st8" points="269.2,159.4 254,141 284.3,141 "/>
<polygon id="Rectangle-2-Copy" class="st8" points="368.4,81.2 350,96.3 350,66 "/>
<polygon id="Rectangle-2-Copy-2" class="st8" points="170,81.2 188.4,66 188.4,96.3 "/>
<g class="st4">
	<path class="st9" d="M565,110.8h-4.3v4.2H559v-10h6.7v1.3h-5v3h4.3V110.8z"/>
	<path class="st9" d="M570.4,109.1l-0.8,0c-0.3,0-0.6,0.1-0.8,0.2s-0.4,0.3-0.5,0.6v5.1h-1.7v-7.4h1.5l0.1,1h0
		c0.2-0.4,0.4-0.7,0.7-0.9c0.3-0.2,0.6-0.3,1-0.3c0.1,0,0.2,0,0.3,0c0.1,0,0.2,0,0.3,0.1L570.4,109.1z"/>
	<path class="st9" d="M574.7,115.1c-1.1,0-1.9-0.3-2.5-1c-0.6-0.7-0.9-1.6-0.9-2.7v-0.3c0-1.1,0.3-2,0.9-2.7c0.6-0.7,1.4-1,2.3-1
		c1,0,1.8,0.3,2.3,0.9c0.5,0.6,0.8,1.4,0.8,2.4v1h-4.7c0,0.6,0.2,1.1,0.5,1.5c0.3,0.4,0.8,0.6,1.3,0.6c0.5,0,0.8-0.1,1.2-0.2
		c0.3-0.1,0.6-0.3,0.9-0.5l0.5,1.1c-0.3,0.2-0.6,0.4-1.1,0.6C575.8,115.1,575.3,115.1,574.7,115.1z M574.5,108.8
		c-0.4,0-0.8,0.2-1,0.5c-0.3,0.3-0.4,0.7-0.5,1.3h3v-0.2c0-0.5-0.1-0.9-0.4-1.2C575.4,108.9,575,108.8,574.5,108.8z"/>
	<path class="st9" d="M582.1,115.1c-1.1,0-1.9-0.3-2.5-1c-0.6-0.7-0.9-1.6-0.9-2.7v-0.3c0-1.1,0.3-2,0.9-2.7c0.6-0.7,1.4-1,2.3-1
		c1,0,1.8,0.3,2.3,0.9c0.5,0.6,0.8,1.4,0.8,2.4v1h-4.7c0,0.6,0.2,1.1,0.5,1.5c0.3,0.4,0.8,0.6,1.3,0.6c0.5,0,0.8-0.1,1.2-0.2
		c0.3-0.1,0.6-0.3,0.9-0.5l0.5,1.1c-0.3,0.2-0.6,0.4-1.1,0.6C583.2,115.1,582.7,115.1,582.1,115.1z M581.9,108.8
		c-0.4,0-0.8,0.2-1,0.5c-0.3,0.3-0.4,0.7-0.5,1.3h3v-0.2c0-0.5-0.1-0.9-0.4-1.2C582.8,108.9,582.4,108.8,581.9,108.8z"/>
	<path class="st9" d="M591.7,111.2v3.8H590v-10h3.9c1.1,0,2,0.3,2.6,0.8c0.6,0.6,0.9,1.3,0.9,2.3c0,1-0.3,1.7-0.9,2.3
		c-0.6,0.6-1.5,0.8-2.6,0.8H591.7z M591.7,109.9h2.2c0.6,0,1.1-0.2,1.4-0.5c0.3-0.3,0.5-0.7,0.5-1.3s-0.2-0.9-0.5-1.3
		c-0.3-0.3-0.8-0.5-1.4-0.5h-2.2V109.9z"/>
	<path class="st9" d="M600.6,115H599v-10.7h1.7V115z"/>
	<path class="st9" d="M607,115c0-0.2-0.1-0.3-0.1-0.5c0-0.2-0.1-0.3-0.1-0.5c-0.3,0.3-0.6,0.6-0.9,0.8s-0.8,0.3-1.2,0.3
		c-0.8,0-1.3-0.2-1.8-0.6c-0.4-0.4-0.6-0.9-0.6-1.6c0-0.7,0.3-1.3,0.8-1.7s1.4-0.6,2.4-0.6h1.2V110c0-0.4-0.1-0.7-0.3-0.9
		c-0.2-0.2-0.6-0.3-1-0.3c-0.4,0-0.7,0.1-0.9,0.3c-0.2,0.2-0.3,0.4-0.3,0.7h-1.7c0-0.6,0.3-1.2,0.8-1.6c0.6-0.4,1.3-0.7,2.2-0.7
		c0.9,0,1.6,0.2,2.1,0.6c0.5,0.4,0.8,1.1,0.8,1.9v3.3c0,0.3,0,0.6,0.1,0.9c0,0.3,0.1,0.5,0.2,0.8H607z M605,113.8
		c0.4,0,0.7-0.1,1-0.2c0.3-0.2,0.5-0.4,0.7-0.6v-1.3h-1.2c-0.5,0-0.9,0.1-1.1,0.4c-0.3,0.2-0.4,0.5-0.4,0.9c0,0.3,0.1,0.5,0.3,0.7
		C604.4,113.7,604.6,113.8,605,113.8z"/>
	<path class="st9" d="M612.5,112l0.2,0.8h0l1.6-5.2h1.8l-3.1,8.5c-0.2,0.5-0.5,1-0.8,1.3s-0.9,0.5-1.5,0.5c-0.1,0-0.3,0-0.4,0
		c-0.2,0-0.3-0.1-0.5-0.1l0.2-1.3c0.1,0,0.1,0,0.3,0s0.2,0,0.2,0c0.3,0,0.5-0.1,0.7-0.2s0.3-0.4,0.5-0.8l0.3-0.7l-2.7-7.3h1.8
		L612.5,112z"/>
</g>
<g class="st4">
	<path class="st9" d="M150,133v-6.2h-1.1v-1.2h1.1v-0.9c0-0.8,0.2-1.5,0.7-1.9c0.4-0.4,1.1-0.7,1.9-0.7c0.2,0,0.3,0,0.5,0
		c0.2,0,0.3,0.1,0.6,0.1l-0.2,1.3c-0.1,0-0.2,0-0.3,0s-0.2,0-0.4,0c-0.4,0-0.6,0.1-0.8,0.3s-0.3,0.5-0.3,0.9v0.9h1.5v1.2h-1.5v6.2
		H150z"/>
	<path class="st9" d="M158.7,133c-0.1-0.2-0.1-0.3-0.1-0.5s-0.1-0.3-0.1-0.5c-0.3,0.3-0.6,0.6-0.9,0.8s-0.8,0.3-1.2,0.3
		c-0.8,0-1.3-0.2-1.8-0.6c-0.4-0.4-0.6-0.9-0.6-1.6c0-0.7,0.3-1.3,0.8-1.7s1.4-0.6,2.4-0.6h1.2V128c0-0.4-0.1-0.7-0.3-0.9
		c-0.2-0.2-0.6-0.3-1-0.3c-0.4,0-0.7,0.1-0.9,0.3c-0.2,0.2-0.3,0.4-0.3,0.7h-1.7c0-0.6,0.3-1.2,0.8-1.6s1.3-0.7,2.2-0.7
		c0.9,0,1.6,0.2,2.1,0.6c0.5,0.4,0.8,1.1,0.8,1.9v3.3c0,0.3,0,0.6,0.1,0.9s0.1,0.5,0.2,0.8H158.7z M156.8,131.8c0.4,0,0.7-0.1,1-0.2
		s0.5-0.4,0.7-0.6v-1.3h-1.2c-0.5,0-0.9,0.1-1.1,0.4c-0.3,0.2-0.4,0.5-0.4,0.9c0,0.3,0.1,0.5,0.3,0.7
		C156.2,131.7,156.4,131.8,156.8,131.8z"/>
	<path class="st9" d="M166.1,131c0-0.3-0.1-0.5-0.3-0.6s-0.6-0.3-1.2-0.4c-0.9-0.2-1.6-0.5-2-0.8s-0.7-0.8-0.7-1.4
		c0-0.6,0.3-1.2,0.8-1.6c0.5-0.4,1.2-0.6,2.1-0.6c0.9,0,1.6,0.2,2.2,0.7c0.5,0.4,0.8,1,0.8,1.7H166c0-0.3-0.1-0.6-0.3-0.8
		c-0.2-0.2-0.5-0.3-1-0.3c-0.4,0-0.7,0.1-0.9,0.3s-0.3,0.4-0.3,0.7s0.1,0.5,0.3,0.6c0.2,0.1,0.6,0.3,1.2,0.4
		c0.9,0.2,1.6,0.5,2.1,0.8c0.4,0.3,0.7,0.8,0.7,1.4c0,0.7-0.3,1.2-0.8,1.6s-1.3,0.6-2.2,0.6c-1,0-1.7-0.2-2.3-0.7s-0.8-1.1-0.8-1.7
		h1.6c0,0.4,0.2,0.8,0.5,0.9c0.3,0.2,0.6,0.3,1.1,0.3c0.4,0,0.8-0.1,1-0.2S166.1,131.3,166.1,131z"/>
	<path class="st9" d="M171.2,123.8v1.8h1.3v1.2h-1.3v4.1c0,0.3,0.1,0.5,0.2,0.7s0.3,0.2,0.5,0.2c0.1,0,0.2,0,0.3,0
		c0.1,0,0.2,0,0.3-0.1l0.2,1.2c-0.2,0.1-0.3,0.1-0.5,0.2s-0.4,0.1-0.7,0.1c-0.6,0-1.1-0.2-1.4-0.5c-0.3-0.3-0.5-0.9-0.5-1.7v-4.1h-1
		v-1.2h1v-1.8H171.2z"/>
	<path class="st9" d="M176.9,133.1c-1.1,0-1.9-0.3-2.5-1s-0.9-1.6-0.9-2.7v-0.3c0-1.1,0.3-2,0.9-2.7s1.4-1,2.3-1
		c1,0,1.8,0.3,2.3,0.9c0.5,0.6,0.8,1.4,0.8,2.4v1h-4.7c0,0.6,0.2,1.1,0.5,1.5s0.8,0.6,1.3,0.6c0.5,0,0.8-0.1,1.2-0.2
		c0.3-0.1,0.6-0.3,0.9-0.5l0.5,1.1c-0.3,0.2-0.6,0.4-1.1,0.6C178.1,133.1,177.5,133.1,176.9,133.1z M176.7,126.8
		c-0.4,0-0.8,0.2-1,0.5c-0.3,0.3-0.4,0.7-0.5,1.3h3v-0.2c0-0.5-0.1-0.9-0.4-1.2S177.2,126.8,176.7,126.8z"/>
	<path class="st9" d="M184.9,127.1l-0.8,0c-0.3,0-0.6,0.1-0.8,0.2s-0.4,0.3-0.5,0.6v5.1h-1.7v-7.4h1.5l0.1,1h0
		c0.2-0.4,0.4-0.7,0.7-0.9c0.3-0.2,0.6-0.3,1-0.3c0.1,0,0.2,0,0.3,0c0.1,0,0.2,0,0.3,0.1L184.9,127.1z"/>
</g>
<g class="st4">
	<path class="st9" d="M356.8,131c0-0.3-0.1-0.5-0.3-0.6c-0.2-0.2-0.6-0.3-1.2-0.4c-0.9-0.2-1.6-0.5-2-0.8c-0.4-0.3-0.7-0.8-0.7-1.4
		c0-0.6,0.3-1.2,0.8-1.6c0.5-0.4,1.2-0.6,2.1-0.6c0.9,0,1.6,0.2,2.2,0.7c0.5,0.4,0.8,1,0.8,1.7h-1.7c0-0.3-0.1-0.6-0.3-0.8
		c-0.2-0.2-0.5-0.3-1-0.3c-0.4,0-0.7,0.1-0.9,0.3s-0.3,0.4-0.3,0.7s0.1,0.5,0.3,0.6c0.2,0.1,0.6,0.3,1.2,0.4
		c0.9,0.2,1.6,0.5,2.1,0.8c0.4,0.3,0.7,0.8,0.7,1.4c0,0.7-0.3,1.2-0.8,1.6c-0.5,0.4-1.3,0.6-2.2,0.6c-1,0-1.7-0.2-2.3-0.7
		c-0.5-0.5-0.8-1.1-0.8-1.7h1.6c0,0.4,0.2,0.8,0.5,0.9c0.3,0.2,0.6,0.3,1.1,0.3c0.4,0,0.8-0.1,1-0.2S356.8,131.3,356.8,131z"/>
	<path class="st9" d="M361.7,133H360v-10.7h1.7V133z"/>
	<path class="st9" d="M363.2,129.2c0-1.1,0.3-2,0.9-2.7c0.6-0.7,1.4-1,2.5-1c1.1,0,1.9,0.3,2.5,1c0.6,0.7,0.9,1.6,0.9,2.7v0.1
		c0,1.1-0.3,2-0.9,2.7s-1.4,1-2.5,1c-1.1,0-1.9-0.3-2.5-1s-0.9-1.6-0.9-2.7V129.2z M364.9,129.4c0,0.7,0.1,1.3,0.4,1.8
		s0.7,0.7,1.3,0.7c0.6,0,1-0.2,1.3-0.7c0.3-0.4,0.4-1,0.4-1.8v-0.1c0-0.7-0.1-1.3-0.4-1.8s-0.7-0.7-1.3-0.7c-0.6,0-1,0.2-1.3,0.7
		s-0.4,1-0.4,1.8V129.4z"/>
	<path class="st9" d="M373.6,130.4l0.1,0.5h0l0.1-0.5l1.5-4.9h1.2l1.5,4.9l0.1,0.6h0l0.1-0.6l1.1-4.8h1.6l-2,7.4h-1.4l-1.4-4.6
		l-0.2-0.7h0l-0.2,0.7l-1.4,4.6h-1.4l-2-7.4h1.6L373.6,130.4z"/>
	<path class="st9" d="M385.1,133.1c-1.1,0-1.9-0.3-2.5-1c-0.6-0.7-0.9-1.6-0.9-2.7v-0.3c0-1.1,0.3-2,0.9-2.7c0.6-0.7,1.4-1,2.3-1
		c1,0,1.8,0.3,2.3,0.9c0.5,0.6,0.8,1.4,0.8,2.4v1h-4.7c0,0.6,0.2,1.1,0.5,1.5c0.3,0.4,0.8,0.6,1.3,0.6c0.5,0,0.8-0.1,1.2-0.2
		c0.3-0.1,0.6-0.3,0.9-0.5l0.5,1.1c-0.3,0.2-0.6,0.4-1.1,0.6C386.3,133.1,385.7,133.1,385.1,133.1z M384.9,126.8
		c-0.4,0-0.8,0.2-1,0.5c-0.3,0.3-0.4,0.7-0.5,1.3h3v-0.2c0-0.5-0.1-0.9-0.4-1.2C385.8,126.9,385.4,126.8,384.9,126.8z"/>
	<path class="st9" d="M393.1,127.1l-0.8,0c-0.3,0-0.6,0.1-0.8,0.2s-0.4,0.3-0.5,0.6v5.1h-1.7v-7.4h1.5l0.1,1h0
		c0.2-0.4,0.4-0.7,0.7-0.9c0.3-0.2,0.6-0.3,1-0.3c0.1,0,0.2,0,0.3,0c0.1,0,0.2,0,0.3,0.1L393.1,127.1z"/>
</g>
</svg>
