<?xml version="1.0" encoding="utf-8"?>
<!-- Generator: Adobe Illustrator 23.0.1, SVG Export Plug-In . SVG Version: 6.00 Build 0)  -->
<svg version="1.1" id="Layer_1" xmlns="http://www.w3.org/2000/svg" xmlns:xlink="http://www.w3.org/1999/xlink" x="0px" y="0px"
	 viewBox="0 0 640 640" style="enable-background:new 0 0 640 640;" xml:space="preserve">
<style type="text/css">
	.st0{fill:#5B5B5B;}
	.st1{fill:url(#SVGID_1_);}
	.st2{fill:#35EF85;}
</style>
<g>
	
		<image style="overflow:visible;opacity:0.75;" width="661" height="564" xlink:href="597C09504A6F0A36.png"  transform="matrix(1 0 0 1 -2 44)">
	</image>
	<g>
		<g>
			<g id="head_11_">
				<path class="st0" d="M628,178.3c-8.2-79.9-77-97-305-97.3h-4C90,81.3,23.1,98.3,14.9,178.3c-8.3,80.6-12,230.6,0.2,307.4
					S155,582.8,322,582.8v1l0,0v-1c174,0,294.1-20.6,306.3-97.2S636.3,258.9,628,178.3z"/>
				<path d="M627.8,178.3l-0.6-4.7l-0.3-2.4c-0.1-0.8-0.3-1.6-0.4-2.4l-0.9-4.7l-1.2-4.7c-1.6-6.2-4.1-12.2-7.3-18
					c-0.4-0.7-0.7-1.5-1.2-2.1l-1.4-2.1c-0.9-1.4-1.8-2.8-2.9-4.1c-1.1-1.3-2-2.7-3.2-3.9l-3.5-3.7c-5-4.8-10.6-9-16.8-12.6
					c-1.6-0.8-3.2-1.7-4.8-2.5c-0.8-0.4-1.6-0.8-2.4-1.3l-2.5-1.1c-1.7-0.7-3.3-1.5-5-2.2l-5.1-2c-0.9-0.3-1.7-0.7-2.6-1l-2.6-0.8
					l-5.2-1.7l-5.3-1.5c-1.8-0.5-3.5-1-5.4-1.4c-7.2-1.8-14.5-3.3-21.9-4.6c-7.4-1.3-14.8-2.3-22.2-3.3c-3.7-0.4-7.4-0.8-11.2-1.3
					l-11.2-1.1c-7.5-0.6-15-1.2-22.5-1.7s-15-0.8-22.5-1.2l-11.3-0.5c-3.8-0.2-7.5-0.3-11.3-0.4L402,83.1l-11.3-0.2
					c-7.5-0.2-15-0.2-22.6-0.3c-7.6-0.1-15-0.1-22.6-0.2H321V81l0,0l1.9,1.4h-4.5L320,81l0,0v1.4h-1.6c-22.4,0.1-44.8,0.3-67.2,0.8
					s-44.8,1.4-67.1,2.8s-44.6,3.5-66.5,7.3c-10.9,1.8-21.7,4.3-32.3,7.4c-10.5,3.1-20.5,7.2-29.8,12.4c-9.2,5.2-17.1,12-23.2,19.8
					c-1.5,1.9-2.9,4-4.2,6c-0.7,1-1.3,2.1-1.9,3.2l-1.7,3.2c-0.5,1.1-1,2.2-1.5,3.3s-1,2.2-1.4,3.3l-1.2,3.4
					c-0.4,1.1-0.8,2.3-1.1,3.4l-0.9,3.5l-0.5,1.7c-0.1,0.6-0.2,1.2-0.4,1.7l-0.6,3.5l-0.4,1.7c-0.1,0.6-0.2,1.2-0.2,1.8
					c-0.3,2.4-0.7,4.7-0.9,7l-0.7,7.1l-0.7,7.1l-0.6,7.1c-0.4,4.7-0.8,9.5-1.1,14.2c-1.4,19-2.4,37.9-3.2,56.9s-1.2,38-1.4,57
					s-0.1,38,0.4,57c0.2,9.5,0.6,19,1,28.5c0.2,4.7,0.6,9.5,0.8,14.2l0.4,7.1L11,443l0.6,7.1l0.3,3.6l0.4,3.5
					c0.5,4.7,1,9.5,1.6,14.2l2,14.1l0.7,3.5l0.8,3.4l1,3.4l1.2,3.4c3.5,8.9,8.9,17.2,16,24.4s15.5,13.5,24.8,18.6
					c9.3,5.2,19.2,9.5,29.5,13.1c5.1,1.8,10.4,3.5,15.7,5c5.3,1.5,10.6,2.9,16,4.2c21.5,5.1,43.6,8.3,65.8,10.7s44.6,3.8,67,4.8
					s44.8,1.2,67.2,1.2h2v2.7l-2-1.7h0.4v3.4h-2.5v-4.4h2c14.9,0,29.9-0.2,44.8-0.6c14.9-0.4,29.8-1,44.7-1.8
					c14.9-0.8,29.8-2,44.5-3.5s29.5-3.5,44.1-6.1c14.6-2.5,28.9-5.9,42.9-10s27.3-9.6,39.7-16.5c12.2-6.9,23.1-15.6,30.9-26.1
					c1.9-2.6,3.7-5.4,5.2-8.2c3.1-5.6,5.4-11.6,6.8-17.7c0.8-3.1,1.2-6.1,1.7-9.3l1.3-9.4c0.5-3.1,0.7-6.3,1.1-9.4l1-9.4l0.8-9.5
					c0.2-3.1,0.6-6.3,0.8-9.5l0.6-9.5c0.2-3.2,0.4-6.3,0.6-9.5l0.4-9.5l0.4-9.5l0.3-9.5l0.3-9.5c0.1-3.2,0.1-6.3,0.2-9.5
					c0.2-12.7,0.3-25.3,0.2-37.9l-0.2-19l-0.4-19l-0.5-19c-0.2-6.3-0.5-12.6-0.8-19c-0.6-12.6-1.2-25.3-2.1-37.9
					c-0.4-6.3-1-12.6-1.4-18.9S628.4,184.6,627.8,178.3z M628.2,178.3c0.6,6.3,1.2,12.6,1.8,18.9s1.1,12.6,1.5,18.9
					c0.9,12.6,1.7,25.3,2.3,37.9c0.3,6.3,0.7,12.6,0.9,19l0.8,19l0.6,19l0.4,19c0.2,12.7,0.3,25.3,0.3,38v9.5l-0.2,9.5l-0.2,9.5
					l-0.3,9.5l-0.3,9.5c-0.1,3.2-0.3,6.3-0.4,9.5l-0.4,9.4c-0.2,3.2-0.4,6.3-0.6,9.5l-0.7,9.5l-1,9.5c-0.3,3.2-0.6,6.3-1,9.5
					l-1.3,9.4c-0.7,6.4-2.2,12.7-4.4,18.9c-1.2,3.1-2.5,6.1-4.1,9s-3.4,5.8-5.4,8.5c-8,11-19.3,20.1-31.9,27.3
					c-12.7,7-26.3,12.7-40.6,16.9c-14.2,4.3-28.7,7.7-43.5,10.3c-14.7,2.6-29.5,4.6-44.4,6.2c-14.9,1.6-29.8,2.7-44.8,3.5
					c-29.9,1.7-59.9,2.2-89.8,2.2l2-1.7v1l-2-1.7h0.5v3.4h-2.4v-2.7l2,1.7c-22.5,0-45-0.4-67.4-1.4c-22.4-0.9-44.9-2.5-67.2-5
					c-22.4-2.3-44.5-6.1-66.3-11.1c-5.4-1.3-10.8-2.7-16.2-4.2c-5.3-1.5-10.6-3.2-15.8-5.1c-10.5-3.7-20.5-8.2-29.9-13.5
					c-9.5-5.3-18-11.8-25.2-19.2c-7.2-7.5-12.7-16-16.2-25.2l-1.2-3.5l-1-3.5l-0.8-3.6l-0.6-3.6l-1.9-14.2c-0.5-4.7-1-9.5-1.5-14.2
					l-0.4-3.6l-0.3-3.6L9.1,443l-0.5-7.1l-0.4-7.1c-0.2-4.7-0.5-9.5-0.7-14.2c-0.3-9.5-0.7-19-0.8-28.5c-0.4-19-0.4-38-0.2-57
					c0.1-9.5,0.3-19,0.6-28.5s0.5-19,0.8-28.5c0.8-19,1.6-38,3-56.9c0.3-4.7,0.7-9.5,1.1-14.2l0.5-7.1l0.6-7.1l0.6-7.1
					c0.2-2.4,0.6-4.7,0.8-7.1c0.1-0.6,0.1-1.2,0.2-1.8L15,169l0.6-3.5c0.1-0.6,0.2-1.2,0.3-1.8l0.4-1.8l0.9-3.5
					c0.3-1.2,0.7-2.3,1.1-3.5l1.1-3.4c0.4-1.2,0.9-2.3,1.4-3.4s0.9-2.3,1.5-3.4l1.7-3.3c0.5-1.1,1.2-2.2,1.9-3.3
					c1.3-2.1,2.7-4.2,4.3-6.2c6.2-8.1,14.3-15.1,23.7-20.5c9.4-5.3,19.6-9.7,30.3-12.9c10.6-3.2,21.5-5.8,32.6-7.7
					c22.1-4,44.5-6.1,66.9-7.7s44.9-2.3,67.4-2.9c22.5-0.5,45-0.6,67.4-0.6L317,81l0,0v-1.5h8v1.4l0,0l-1.8-1.4l22.5,0.2
					c7.5,0.1,15,0.2,22.6,0.3c7.6,0.1,15,0.3,22.6,0.5l11.3,0.3l11.3,0.4c3.8,0.1,7.5,0.3,11.3,0.5l11.3,0.5
					c7.5,0.4,15,0.8,22.5,1.4s15,1.2,22.5,1.9l11.2,1.2c3.7,0.4,7.5,0.9,11.2,1.4c7.4,1,14.9,2.1,22.2,3.5c7.4,1.4,14.7,3,21.9,4.9
					c1.8,0.4,3.6,1,5.4,1.5l5.4,1.5l5.3,1.8l2.6,0.8c0.9,0.3,1.7,0.7,2.6,1l5.1,2c1.7,0.7,3.3,1.5,5,2.3l2.5,1.1
					c0.8,0.4,1.6,0.8,2.4,1.3c1.6,0.8,3.2,1.7,4.8,2.6c6.2,3.7,11.8,8,16.8,12.8l3.5,3.7c1.1,1.3,2.1,2.6,3.1,3.9
					c1.1,1.3,2,2.7,2.9,4.1l1.4,2.1c0.5,0.7,0.8,1.4,1.2,2.2c3.2,5.8,5.6,11.9,7.2,18.1l1.2,4.7l0.9,4.7c0.1,0.8,0.3,1.6,0.4,2.4
					l0.3,2.4L628.2,178.3z"/>
				<path d="M578.3,203.5c-6.9-66.8-63.3-81.1-254.3-81.3h-5c-191,0.3-247,14.5-253.9,81.3c-6.9,67.4-10,192.7,0.3,256.9
					S130,541.6,322,541.6v-0.1l0,0v0.1c193,0,246.1-17.2,256.3-81.3S585.2,270.9,578.3,203.5z"/>
				<path d="M578.3,203.5c-6.9-66.8-63.3-81.1-254.3-81.3h-5c-191,0.3-247,14.5-253.9,81.3c-6.9,67.4-10,192.7,0.3,256.9
					S130,541.6,322,541.6v-0.1l0,0v0.1c193,0,246.1-17.2,256.3-81.3S585.2,270.9,578.3,203.5z"/>
			</g>
			<g id="Layer_4_11_">
				
					<linearGradient id="SVGID_1_" gradientUnits="userSpaceOnUse" x1="320.3" y1="392" x2="320.3" y2="440" gradientTransform="matrix(1 0 0 -1 0 492)">
					<stop  offset="0" style="stop-color:#000000"/>
					<stop  offset="1" style="stop-color:#ABABAB"/>
				</linearGradient>
				<path class="st1" d="M125,76.4c0,0,62.6-24.4,194.3-24.4s195.3,24.4,195.3,24.4l9,16c0,0-19.9,7.6-30.8,7.6
					s-64.7-18.5-173.5-18.5S164.7,99.9,149.8,99.9s-32.8-5-32.8-5L125,76.4z"/>
			</g>
		</g>
	</g>
</g>
<title>cozmo_eyes</title>
<g id="eyes">
	<path class="st2" d="M359.9,198.8h81.5c13.3,0,24,10.7,24,24v87.4c0,13.3-10.7,24-24,24h-81.5c-13.3,0-24-10.7-24-24v-87.4
		C335.9,209.6,346.6,198.8,359.9,198.8z"/>
	<path class="st2" d="M216.4,214.6h71c13.3,0,24,10.7,24,24v65.9c0,13.3-10.7,24-24,24h-71c-13.3,0-24-10.7-24-24v-65.9
		C192.4,225.3,203.1,214.6,216.4,214.6z"/>
</g>
</svg>
