<?xml version="1.0" encoding="utf-8"?>
<!-- Generator: Adobe Illustrator 22.1.0, SVG Export Plug-In . SVG Version: 6.00 Build 0)  -->
<svg version="1.1" id="Layer_1" xmlns="http://www.w3.org/2000/svg" xmlns:xlink="http://www.w3.org/1999/xlink" x="0px" y="0px"
	 width="285.5px" height="67.4px" viewBox="0 0 285.5 67.4" style="enable-background:new 0 0 285.5 67.4;" xml:space="preserve">
<style type="text/css">
	.st0{fill:#FFFFFF;}
</style>
<g>
	<g>
		<path id="SVGID_1_" class="st0" d="M47.8,12.3c0,5.3-1.3,10.6-3.8,15.2L27.3,58L10.7,27.5c-2.5-4.6-3.9-9.9-3.9-15.2V0H0v12.3
			c0,6.4,1.6,12.8,4.7,18.4l19.7,36h6l19.7-36c3.1-5.6,4.7-12,4.7-18.4V0H48v12.3H47.8z"/>
	</g>
</g>
<g>
	<g>
		<path id="SVGID_3_" class="st0" d="M238.1,48.6l-0.4,3.4v0.2c-0.3,4.3-3.8,7.7-8.2,8.1h-0.2c-4.7,0.4-9.4,0.4-14.1,0
			c-4.4-0.4-7.8-3.8-8.2-8.1l-0.4-3.6c-0.3-4-0.3-8,0-12L207,33v-0.1c0.3-4.3,3.8-7.7,8.2-8.1c4.7-0.4,9.4-0.4,14.1,0h0.2
			c4.4,0.4,7.8,3.8,8.2,8.1l0.5,3.8C238.4,40.6,238.4,44.7,238.1,48.6z M244.4,32.3c-0.6-7.6-6.7-13.6-14.4-14.2h-0.2
			c-5.1-0.5-10.2-0.4-15.3,0c-7.7,0.7-13.7,6.7-14.3,14.2l-0.4,3.7v0.1c-0.3,4.4-0.3,8.8,0,13.2l0.4,3.6c0.6,7.6,6.7,13.5,14.3,14.2
			c2.6,0.2,5.1,0.3,7.7,0.3c2.5,0,5.1-0.1,7.6-0.3h0.2c7.7-0.7,13.7-6.7,14.4-14.2l0.4-3.4v-0.2c0.4-4.4,0.4-8.8,0-13.2L244.4,32.3z
			"/>
	</g>
</g>
<g>
	<g>
		<path id="SVGID_5_" class="st0" d="M276,17.6c-2.9-0.1-5.9-0.1-9.1,0.7c-12.1,3.1-12.1,15.1-12.1,19v28.8h6.8V37.3
			c0-7.6,2-11.2,7-12.5c2.3-0.6,4.6-0.6,7.3-0.5c0.7,0,1.5,0,2.2,0v-6.7C277.3,17.6,276.7,17.6,276,17.6"/>
	</g>
</g>
<g>
	<g>
		<path id="SVGID_7_" class="st0" d="M183,59.2c-5-1.3-7-4.9-7-12.5V25h15.2v-6.7H176V9.4h-6.8v37.3c0,3.9,0,15.8,12.1,19
			c2.5,0.6,4.8,0.8,7,0.8c0.7,0,1.4,0,2.1,0c0.7,0,1.4,0,2.1,0v-6.7c-0.7,0-1.5,0-2.2,0C187.6,59.8,185.3,59.8,183,59.2"/>
	</g>
</g>
<g>
	<g>
		<path id="SVGID_9_" class="st0" d="M143.9,60.3h-0.2c-4.7,0.4-9.4,0.4-14.1,0c-4.4-0.4-7.8-3.8-8.2-8.1l-0.4-3.6
			c-0.3-4-0.3-8,0-12l0.4-3.7v-0.1c0.3-4.3,3.8-7.7,8.2-8.1c4.7-0.4,9.4-0.4,14.1,0h0.2c4,0.4,7.2,3.2,8,7h6.9
			c-0.9-7.3-6.8-13.1-14.3-13.7h-0.2c-5.1-0.4-10.2-0.4-15.3,0c-7.7,0.7-13.7,6.7-14.3,14.2l-0.4,3.7V36c-0.3,4.4-0.3,8.8,0,13.2
			l0.4,3.6c0.6,7.6,6.7,13.5,14.3,14.2c2.6,0.2,5.1,0.3,7.7,0.3c2.5,0,5.1-0.1,7.6-0.3h0.2c7.5-0.7,13.4-6.4,14.3-13.7h-6.9
			C151.1,57.1,147.9,60,143.9,60.3"/>
	</g>
</g>
<g>
	<g>
		<path id="SVGID_11_" class="st0" d="M97.5,38.2H66.1c0-0.5,0.1-1,0.1-1.5l0.4-3.7v-0.1c0.3-4.3,3.8-7.7,8.2-8.1
			c4.7-0.4,9.4-0.4,14.1,0h0.2c4.4,0.4,7.8,3.8,8.2,8.1l0.3,3.6L97.5,38.2L97.5,38.2z M89.7,18h-0.2c-5.1-0.4-10.2-0.4-15.3,0
			c-7.7,0.7-13.7,6.7-14.3,14.2l-0.5,3.7V36c-0.3,4.4-0.3,8.8,0,13.2l0.4,3.6c0.6,7.6,6.7,13.5,14.3,14.2c2.6,0.2,5.1,0.3,7.7,0.3
			c2.5,0,5.1-0.1,7.6-0.3h0.2c7.5-0.7,13.4-6.4,14.3-13.7H97c-0.8,3.8-4,6.7-8,7h-0.2c-4.7,0.4-9.4,0.4-14.1,0
			c-4.4-0.4-7.8-3.8-8.1-8.1l-0.4-3.6c-0.1-1.2-0.2-2.5-0.2-3.7h38.3v-8.6l-0.3-4C103.4,24.7,97.4,18.7,89.7,18z"/>
	</g>
</g>
<g>
	<g>
		<polygon id="SVGID_13_" class="st0" points="282.8,17.9 282,17.9 282,20 281.7,20 281.7,17.9 280.9,17.9 280.9,17.7 282.8,17.7 		
			"/>
	</g>
</g>
<g>
	<g>
		<polygon id="SVGID_15_" class="st0" points="283.1,17.7 283.5,17.7 284.3,19.5 284.3,19.5 285.1,17.7 285.5,17.7 285.5,20 
			285.3,20 285.3,18.1 285.2,18.1 284.4,20 284.2,20 283.4,18.1 283.4,18.1 283.4,20 283.1,20 		"/>
	</g>
</g>
</svg>
